{"title":"Pride and Prejudice and Zombies 2016 BRRip x264 AAC-SSN","uid":14660350,"size":1302105885,"categoryP":"video","categoryS":"movies","magnet":"?xt=urn:btih:9d000a618c1be773433672c65d0daedabefefaef&amp;dn=Pride+and+Prejudice+and+Zombies+2016+BRRip+x264+AAC-SSN&amp;tr=udp%3A%2F%2Ftracker.leechers-paradise.org%3A6969&amp;tr=udp%3A%2F%2Fzer0day.ch%3A1337&amp;tr=udp%3A%2F%2Fopen.demonii.com%3A1337&amp;tr=udp%3A%2F%2Ftracker.coppersurfer.tk%3A6969&amp;tr=udp%3A%2F%2Fexodus.desync.com%3A6969","seeders":0,"leechers":2,"uploader":"somespirit","files":2,"time":1463743807,"description":"IMDB:  http://www.imdb.com/title/tt1374989/\r\n\r\n Source: Pride.And.Prejudice.And.Zombies.2016.720p.BluRay.x264-BLOW\r\n\r\n\r\n\r\n General\r\n Complete name                            : Pride and Prejudice and Zombies 2016 BRRip x264 AAC-SSN.mkv\r\n Format                                   : Matroska\r\n Format version                           : Version 4 / Version 2\r\n File size                                : 1.21 GiB\r\n Duration                                 : 1h 47mn\r\n Overall bit rate                         : 1 614 Kbps\r\n Encoded date                             : UTC 2016-05-18 09:45:54\r\n Writing application                      : mkvmerge v8.6.1 ('Flying') 64bit\r\n Writing library                          : libebml v1.3.3 + libmatroska v1.4.4\r\n\r\n Video\r\n ID                                       : 1\r\n Format                                   : AVC\r\n Format/Info                              : Advanced Video Codec\r\n Format profile                           :   \r\n Format settings, CABAC                   : Yes\r\n Format settings, ReFrames                : 5 frames\r\n Codec ID                                 : V_MPEG4/ISO/AVC\r\n Duration                                 : 1h 47mn\r\n Bit rate                                 : 1 282 Kbps\r\n Width                                    : 900 pixels\r\n Height                                   : 376 pixels\r\n Display aspect ratio                     : 2.40:1\r\n Frame rate mode                          : Constant\r\n Frame rate                               : 23.976 (24000/1001) fps\r\n Color space                              : YUV\r\n Chroma subsampling                       : 4:2:0\r\n Bit depth                                : 8 bits\r\n Scan type                                : Progressive\r\n Bits/(Pixel*Frame)                       : 0.190\r\n Stream size                              : 986 MiB (79%)\r\n Writing library                          : x264 core 148 r2692 64f4e24\r\n Language                                 : English\r\n Default                                  : Yes\r\n Forced                                   : No\r\n\r\n Audio\r\n ID                                       : 2\r\n Format                                   : AAC\r\n Format/Info                              : Advanced Audio Codec\r\n Format profile                           : LC\r\n Codec ID                                 : A_AAC\r\n Duration                                 : 1h 47mn\r\n Bit rate                                 : 330 Kbps\r\n Channel(s)                               : 6 channels\r\n Channel positions                        : Front: L C R, Side: L R, LFE\r\n Sampling rate                            : 32.0 KHz\r\n Frame rate                               : 31.250 fps (1024 spf)\r\n Compression mode                         : Lossy\r\n Stream size                              : 254 MiB (20%)\r\n Language                                 : English\r\n Default                                  : Yes\r\n Forced                                   : No\r\n\r\n \nhttp://lookpic.com/O/i2/877/xnnz0F0J.png\r\n \nhttp://lookpic.com/O/i2/1813/upDBRF3Q.png\r\n \nhttp://lookpic.com/O/i2/242/CcB81p9N.png","torrent":{"xt":"urn:btih:9d000a618c1be773433672c65d0daedabefefaef","amp;dn":"Pride+and+Prejudice+and+Zombies+2016+BRRip+x264+AAC-SSN","amp;tr":["udp%3A%2F%2Ftracker.leechers-paradise.org%3A6969","udp%3A%2F%2Fzer0day.ch%3A1337","udp%3A%2F%2Fopen.demonii.com%3A1337","udp%3A%2F%2Ftracker.coppersurfer.tk%3A6969","udp%3A%2F%2Fexodus.desync.com%3A6969"],"infoHash":"9d000a618c1be773433672c65d0daedabefefaef","infoHashBuffer":{"type":"Buffer","data":[157,0,10,97,140,27,231,115,67,54,114,198,93,13,174,218,190,254,250,239]},"announce":[],"urlList":[]}}